<?xml version="1.0" encoding="UTF-8"?>
<svg id="b" data-name="Layer 2" xmlns="http://www.w3.org/2000/svg" viewBox="0 0 179.68 179.68">
  <defs>
    <style>
      .d {
        stroke-width: 1.5px;
      }

      .d, .e, .f, .g, .h {
        stroke: #000;
        stroke-miterlimit: 10;
      }

      .d, .h {
        fill: #ff1212;
      }

      .e {
        fill: #03294c;
      }

      .e, .f {
        stroke-width: 2px;
      }

      .i, .f, .g {
        fill: #fff;
      }

      .g {
        stroke-width: .75px;
      }

      .h {
        stroke-width: 3px;
      }
    </style>
  </defs>
  <g id="c" data-name="Layer 8">
    <g>
      <circle cx="89.84" cy="89.84" r="66.12"/>
      <g>
        <path class="g" d="M129.28,51.3c-35.74-44.01-106.2-1.06-85.34,51.76-14.68,16.52,3.81,45.64,21.75,26.35.75,20.44,24.54,23.57,30.8,4.4l.39,1.37c9.21,23.14,36.15,4.91,29.97-15.13,18-18.84,19.02-48.73,2.43-68.76Z"/>
        <path d="M64.97,98.58c-9.98-6.47-4.4-29.37,7.22-28.61,17,1.87,8.89,37.01-7.22,28.61Z"/>
        <path d="M105.79,109.37c-13.29-9.32-7.23-38.32,9.67-38.94h0c22.44,2.77,11.83,49.63-9.67,38.94Z"/>
      </g>
      <path class="h" d="M159.94,36.09c-4.83-6.29-10.5-11.91-16.83-16.7C128.3,8.16,109.85,1.5,89.84,1.5,41.05,1.5,1.5,41.05,1.5,89.84c0,20.01,6.66,38.47,17.88,53.28,4.7,6.21,10.2,11.78,16.35,16.55,14.95,11.6,33.72,18.51,54.11,18.51,48.79,0,88.34-39.55,88.34-88.34,0-20.23-6.8-38.86-18.24-53.75ZM24.74,89.84c0-35.95,29.15-65.1,65.1-65.1,13.59,0,26.2,4.17,36.64,11.28,0,0,0,0,0,0L36.03,126.49s0,0,0,0c-7.12-10.44-11.29-23.06-11.29-36.65ZM89.84,154.94c-13.96,0-26.9-4.4-37.5-11.88l90.72-90.72c7.48,10.6,11.88,23.54,11.88,37.5,0,35.95-29.15,65.1-65.1,65.1Z"/>
      <g>
        <g>
          <path class="f" d="M96.83,18.13c-2.17-15.84-25.95-13.91-44.71-3.07-18.76,10.84-34.37,32.99-23.13,40.05,3.21,2.01,11.98,1.68,16.72-2.29,5.88-4.91,12.91-6.79,23.27-12.77,9.38-5.42,13.19-11.09,18.64-12.5,5.11-1.33,9.82-4.88,9.2-9.42Z"/>
          <path class="e" d="M94.58,35.78c-6.09,1.87-12.94,4.75-23.61,10.57-10.31,5.61-17.44,11.66-22.45,16.46-1.19,1.13-3.15.51-3.87-.72l-3.34-5.67c-.72-1.23-.01-2.69,1.26-3.73,5.1-4.18,9.35-7.81,22.11-15.52,11.58-7,17.49-8.98,23.59-11.34,1.65-.64,3.15-.51,3.87.72l3.34,5.67c.72,1.23.69,3.08-.89,3.56Z"/>
          <path class="d" d="M47.78,17.38l2.77-1.53s-1.41-2.68-8.55-.82c-6.59,1.71-15.57,8.02-21.19,18.37s-6.32,19.98-5.67,26.29-1.12,9.69-1.12,9.69l3.78-2.83.51,3.7s1.86-3.51,2.25-8.5c.3-3.87-2.42-12.41,2.25-21.85,6.02-12.17,15.78-22.92,24.99-22.52Z"/>
        </g>
        <g>
          <path class="i" d="M51.74,53.85c.16.14.26.2.41.23.23.04.49-.04.72-.22.36-.28.44-.6.22-.85-.12-.14-.3-.2-.47-.16-.14.03-.28.09-.86.37-.5.25-.7.32-.97.35-.46.04-.89-.12-1.21-.47-.61-.66-.43-1.55.49-2.3.6-.48,1.21-.68,1.76-.55.25.05.42.14.71.34-.23.22-.45.44-.68.66-.13.12-.31.14-.48.09-.22-.07-.43,0-.69.2-.29.23-.36.54-.18.74.11.12.26.16.47.1.13-.03.13-.04.77-.37.42-.21.71-.31.98-.35.51-.07.94.1,1.3.51.29.34.42.71.38,1.08-.05.46-.35.91-.89,1.33-.39.31-.84.54-1.21.6-.34.06-.67,0-.99-.16-.14-.07-.25-.15-.47-.32.29-.29.58-.58.88-.86Z"/>
          <path class="i" d="M56.93,50.74c.11.14.21.25.31.36.16.17.13.43-.06.57-.11.08-.22.16-.33.25-.19.14-.46.1-.6-.09-.08-.11-.18-.23-.29-.36-.64-.76-1.29-1.52-1.94-2.27-.19.14-.38.29-.56.43-.16.13-.26.2-.37.3-.18.15-.46.14-.61-.04-.06-.06-.11-.12-.17-.19-.15-.17-.12-.43.07-.57.12-.08.24-.18.37-.28.7-.54,1.4-1.07,2.11-1.6.16-.12.29-.22.4-.31.18-.15.46-.13.62.05.05.06.11.13.16.19.15.18.11.44-.08.57-.12.08-.25.17-.41.3-.18.14-.36.27-.54.41.65.76,1.3,1.52,1.93,2.29Z"/>
          <path class="i" d="M61.52,48.58c-.14-.04-.34-.3-.52-.43-.15-.1-.3-.21-.45-.31-.47.32-.93.65-1.39.97.06.16.13.33.19.49.04.11.08.21.13.3.09.19.04.41-.11.55-.26.24-.79.73-.85.55-.16-.48-.09-.33-.23-.73-.41-1.18-.82-2.36-1.24-3.53-.05-.14-.09-.25-.13-.34-.07-.17-.01-.35.14-.46.25-.18.51-.36.76-.54.15-.11.36-.11.51,0,.09.06.19.12.33.2,1.12.68,2.23,1.38,3.33,2.09.29.19.64.25.69.42.06.19-.8.88-1.15.78ZM58.56,47.35s0,0,0,0c.1.25.43.35.66.19t0,0c.23-.16.22-.49-.02-.65,0,0,0,0,0,0-.34-.23-.79.09-.64.46Z"/>
          <path class="i" d="M64.18,45.73c.1.13.19.25.29.36.16.19.12.45-.08.57-.11.07-.23.15-.34.22-.2.13-.47.07-.61-.13-.08-.12-.17-.24-.27-.37-.2-.27-.41-.53-.61-.8-.05-.06-.11-.11-.18-.14-.81-.33-1.63-.66-2.45-.97-.21-.08-.86-.14-.86-.29.01-.3,1.02-.71,1.02-.7.14-.09.32-.11.47-.02.11.06.23.12.4.19.2.09.4.18.6.27.31.14.65-.09.61-.4-.03-.2-.06-.4-.09-.6-.02-.16-.05-.29-.08-.4-.04-.16.02-.33.16-.42,0,0,.73-.79,1.03-.68.14.05.03.7.05.85.08.82.16,1.64.24,2.46,0,.07.04.14.08.21.2.27.41.53.61.8Z"/>
          <path class="i" d="M71.19,42.54c-.16.09-.37.07-.52-.05-.13-.11-.32-.25-.58-.43-.48-.34-.63-.42-.84-.46-.18-.03-.34,0-.5.1-.18.1-.35.21-.53.31.2.27.4.55.6.82.11.16.21.28.29.39.15.19.11.45-.09.57-.11.06-.22.13-.33.19-.2.12-.48.05-.61-.15-.07-.11-.16-.23-.28-.39-.65-.89-1.31-1.78-1.98-2.66-.1-.14-.19-.25-.27-.35-.16-.19-.12-.45.09-.58.11-.06.23-.14.37-.23.45-.28.9-.55,1.35-.82.84-.51,1.65-.37,2.18.35.26.36.36.7.29,1-.05.19-.12.31-.31.54.32-.07.53-.03.95.24.19.12.39.25,1.02.67.16.11.6.25.63.4.05.2-.94.52-.94.52ZM68.41,40.68c.3-.18.36-.47.15-.76-.21-.28-.48-.33-.8-.13-.15.09-.3.18-.46.27-.2.12-.24.37-.1.56.05.07.1.13.15.2.14.19.41.25.61.13.15-.09.3-.18.45-.27Z"/>
          <path class="i" d="M75.18,37.4c.96,1.39.71,2.74-.56,3.41-1.3.68-2.72.26-3.7-1.09-.96-1.34-.77-2.67.54-3.39,1.3-.72,2.78-.29,3.72,1.08ZM74.08,37.99c-.59-.84-1.35-1.14-1.99-.79-.65.35-.68,1.08-.09,1.9.6.84,1.35,1.14,2,.8.64-.34.68-1.06.08-1.92Z"/>
          <path class="i" d="M79.97,35.08c.96,1.43.69,2.77-.62,3.39-1.33.62-2.78.14-3.75-1.25-.96-1.38-.74-2.71.6-3.38,1.33-.67,2.83-.17,3.77,1.24ZM78.84,35.62c-.59-.87-1.35-1.2-2.01-.87-.66.33-.7,1.05-.12,1.9.59.86,1.36,1.2,2.02.89.66-.31.7-1.04.11-1.92Z"/>
          <path class="i" d="M83.87,35.27c.11.16.2.31.3.44.15.21.09.46-.13.55-.13.05-.26.11-.39.16-.22.09-.51-.02-.64-.24-.08-.13-.16-.27-.27-.44-.6-.92-1.21-1.84-1.83-2.75-.22.1-.44.19-.65.29-.19.09-.3.14-.43.21-.21.11-.51.02-.65-.19-.05-.08-.1-.15-.16-.23-.14-.21-.08-.46.14-.56.13-.05.28-.12.43-.19.8-.37,1.62-.73,2.43-1.08.19-.08.34-.15.47-.21.21-.1.51,0,.66.21.05.08.1.15.16.23.14.22.08.47-.15.55-.14.05-.29.11-.48.19-.21.09-.42.18-.63.27.62.92,1.23,1.85,1.83,2.77Z"/>
        </g>
      </g>
    </g>
  </g>
</svg>