<svg width="1100" height="190" viewBox="0 0 1100 190" fill="none" xmlns="http://www.w3.org/2000/svg">
<path d="M665.303 189.613V171.387H671.306L679.434 183.621H679.779L679.492 171.387H684.001V189.613H678.572L669.87 176.689H669.554L669.812 189.613H665.303Z" fill="#F22C54"/>
<path d="M650.264 190C648.886 190 647.641 189.797 646.53 189.392C645.42 188.987 644.462 188.389 643.658 187.597C642.873 186.806 642.27 185.83 641.849 184.67C641.427 183.492 641.217 182.129 641.217 180.583C641.217 178.41 641.609 176.625 642.394 175.225C643.199 173.808 644.3 172.749 645.697 172.049C647.095 171.35 648.675 171 650.437 171C651.796 171 653.031 171.203 654.142 171.608C655.252 172.013 656.2 172.611 656.985 173.403C657.79 174.194 658.402 175.188 658.824 176.385C659.264 177.563 659.484 178.926 659.484 180.472C659.484 182.074 659.254 183.473 658.795 184.67C658.354 185.848 657.723 186.833 656.899 187.625C656.095 188.417 655.128 189.015 653.998 189.42C652.869 189.807 651.624 190 650.264 190ZM650.408 186.52C651.346 186.52 652.131 186.299 652.763 185.858C653.414 185.397 653.902 184.744 654.228 183.897C654.573 183.031 654.745 181.982 654.745 180.749C654.745 179.441 654.573 178.337 654.228 177.435C653.883 176.514 653.376 175.824 652.706 175.363C652.055 174.885 651.25 174.645 650.293 174.645C649.374 174.645 648.589 174.875 647.938 175.336C647.306 175.778 646.818 176.44 646.473 177.324C646.128 178.189 645.956 179.257 645.956 180.528C645.956 181.485 646.052 182.341 646.243 183.096C646.454 183.832 646.741 184.458 647.105 184.974C647.469 185.471 647.928 185.858 648.484 186.134C649.058 186.391 649.699 186.52 650.408 186.52Z" fill="#F22C54"/>
<path d="M630.625 189.613V171.387H635.335V189.613H630.625Z" fill="#F22C54"/>
<path d="M615.399 189.613V171.387H620.052V189.613H615.399ZM609.885 175.087V171.387H625.625V175.087H609.885Z" fill="#F22C54"/>
<path d="M586.129 189.613V171.387H592.132L600.26 183.621H600.605L600.318 171.387H604.827V189.613H599.399L590.696 176.689H590.38L590.638 189.613H586.129Z" fill="#F22C54"/>
<path d="M565.396 189.613V171.387H570.05V189.613H565.396ZM568.757 189.613V186.023H580.447V189.613H568.757ZM568.757 182.047V178.815H578.982V182.047H568.757ZM568.757 174.949V171.387H580.361V174.949H568.757Z" fill="#F22C54"/>
<path d="M547.771 189.613L541.596 171.387H546.651L550.816 185.885H551.218L555.382 171.387H560.38L554.205 189.613H547.771Z" fill="#F22C54"/>
<path d="M517.844 189.613V171.387H523.847L531.975 183.621H532.32L532.033 171.387H536.542V189.613H531.113L522.411 176.689H522.095L522.353 189.613H517.844Z" fill="#F22C54"/>
<path d="M502.805 190C501.427 190 500.182 189.797 499.071 189.392C497.961 188.987 497.003 188.389 496.199 187.597C495.414 186.806 494.811 185.83 494.39 184.67C493.968 183.492 493.758 182.129 493.758 180.583C493.758 178.41 494.15 176.625 494.935 175.225C495.74 173.808 496.841 172.749 498.238 172.049C499.636 171.35 501.216 171 502.978 171C504.337 171 505.572 171.203 506.683 171.608C507.793 172.013 508.741 172.611 509.526 173.403C510.331 174.194 510.943 175.188 511.365 176.385C511.805 177.563 512.025 178.926 512.025 180.472C512.025 182.074 511.795 183.473 511.336 184.67C510.895 185.848 510.264 186.833 509.44 187.625C508.636 188.417 507.669 189.015 506.539 189.42C505.41 189.807 504.165 190 502.805 190ZM502.949 186.52C503.887 186.52 504.672 186.299 505.304 185.858C505.955 185.397 506.444 184.744 506.769 183.897C507.114 183.031 507.286 181.982 507.286 180.749C507.286 179.441 507.114 178.337 506.769 177.435C506.424 176.514 505.917 175.824 505.247 175.363C504.596 174.885 503.791 174.645 502.834 174.645C501.915 174.645 501.13 174.875 500.479 175.336C499.847 175.778 499.359 176.44 499.014 177.324C498.669 178.189 498.497 179.257 498.497 180.528C498.497 181.485 498.593 182.341 498.784 183.096C498.995 183.832 499.282 184.458 499.646 184.974C500.01 185.471 500.469 185.858 501.025 186.134C501.599 186.391 502.24 186.52 502.949 186.52Z" fill="#F22C54"/>
<path d="M481.105 190C479.611 190 478.271 189.807 477.084 189.42C475.897 189.033 474.882 188.444 474.039 187.653C473.216 186.861 472.584 185.894 472.144 184.753C471.722 183.593 471.512 182.24 471.512 180.693C471.512 179.11 471.732 177.72 472.172 176.523C472.613 175.327 473.245 174.314 474.068 173.485C474.911 172.657 475.897 172.04 477.026 171.635C478.156 171.212 479.41 171 480.789 171C481.88 171 482.876 171.129 483.776 171.387C484.695 171.644 485.49 172.031 486.16 172.547C486.83 173.044 487.347 173.651 487.711 174.369C488.094 175.069 488.295 175.87 488.314 176.772L484.035 177.904C484.035 177.149 483.862 176.532 483.518 176.054C483.192 175.575 482.771 175.216 482.254 174.977C481.756 174.719 481.21 174.59 480.617 174.59C480.138 174.59 479.64 174.691 479.123 174.894C478.625 175.078 478.166 175.4 477.744 175.86C477.323 176.302 476.988 176.891 476.739 177.628C476.49 178.364 476.366 179.285 476.366 180.39C476.366 181.826 476.576 182.985 476.998 183.869C477.419 184.753 478.003 185.406 478.75 185.83C479.497 186.235 480.32 186.438 481.22 186.438C482.216 186.438 482.981 186.235 483.518 185.83C484.073 185.406 484.465 184.882 484.695 184.256C484.925 183.63 485.05 182.995 485.069 182.35L489.09 182.958C489.071 183.952 488.917 184.882 488.63 185.747C488.343 186.612 487.883 187.367 487.252 188.012C486.639 188.638 485.825 189.125 484.81 189.475C483.795 189.825 482.56 190 481.105 190Z" fill="#F22C54"/>
<path d="M447.236 190C445.685 190 444.287 189.659 443.043 188.978C441.798 188.297 440.812 187.275 440.084 185.913C439.376 184.532 439.021 182.801 439.021 180.721C439.021 179.193 439.223 177.83 439.625 176.634C440.046 175.437 440.668 174.424 441.492 173.596C442.315 172.749 443.32 172.105 444.507 171.663C445.714 171.221 447.102 171 448.672 171C449.859 171 450.932 171.129 451.889 171.387C452.866 171.644 453.708 172.013 454.417 172.491C455.125 172.97 455.671 173.541 456.054 174.203C456.456 174.866 456.667 175.612 456.686 176.44L452.32 177.738C452.301 177.057 452.119 176.486 451.774 176.026C451.43 175.566 450.97 175.216 450.396 174.977C449.821 174.719 449.18 174.59 448.471 174.59C447.475 174.59 446.633 174.811 445.944 175.253C445.273 175.676 444.756 176.33 444.393 177.214C444.048 178.097 443.876 179.202 443.876 180.528C443.876 181.522 443.971 182.396 444.163 183.151C444.373 183.888 444.68 184.504 445.082 185.001C445.484 185.499 445.972 185.876 446.547 186.134C447.14 186.373 447.839 186.493 448.643 186.493C449.448 186.493 450.137 186.373 450.711 186.134C451.305 185.894 451.774 185.526 452.119 185.029C452.464 184.532 452.645 183.897 452.665 183.124H449.304V179.975H457.26V183.51V189.613H454.101L454.043 185.057H453.469C453.143 186.125 452.722 187.027 452.205 187.763C451.688 188.5 451.027 189.061 450.223 189.448C449.419 189.816 448.423 190 447.236 190Z" fill="#F22C54"/>
<path d="M414.434 189.613V171.387H420.437L428.565 183.621H428.91L428.622 171.387H433.132V189.613H427.703L419 176.689H418.685L418.943 189.613H414.434Z" fill="#F22C54"/>
<path d="M403.152 189.613V171.387H407.863V189.613H403.152Z" fill="#F22C54"/>
<path d="M380.541 189.613V171.387H385.165V179.368C386.104 178.963 386.975 178.456 387.779 177.849C388.583 177.241 389.292 176.579 389.905 175.861C390.536 175.143 391.053 174.406 391.456 173.651C391.877 172.878 392.183 172.123 392.375 171.387H397.717C397.487 172.234 397.114 173.099 396.597 173.983C396.08 174.848 395.457 175.686 394.73 176.496C394.002 177.287 393.217 177.996 392.375 178.622C391.551 179.248 390.709 179.745 389.847 180.113V180.528C390.728 180.528 391.503 180.62 392.174 180.804C392.863 180.988 393.466 181.273 393.983 181.66C394.519 182.047 394.979 182.534 395.362 183.124C395.764 183.694 396.109 184.385 396.396 185.195L398.033 189.613H392.777L391.714 185.996C391.484 185.186 391.178 184.55 390.795 184.09C390.412 183.612 389.904 183.271 389.273 183.068C388.641 182.847 387.827 182.737 386.831 182.737H385.165V189.613H380.541Z" fill="#F22C54"/>
<path d="M367.197 190C365.703 190 364.363 189.807 363.176 189.42C361.988 189.033 360.974 188.444 360.131 187.653C359.308 186.861 358.676 185.894 358.235 184.753C357.814 183.593 357.604 182.24 357.604 180.693C357.604 179.11 357.824 177.72 358.264 176.523C358.705 175.327 359.336 174.314 360.16 173.485C361.002 172.657 361.988 172.04 363.118 171.635C364.248 171.212 365.502 171 366.881 171C367.972 171 368.968 171.129 369.868 171.387C370.787 171.644 371.582 172.031 372.252 172.547C372.922 173.044 373.439 173.651 373.803 174.369C374.186 175.069 374.387 175.87 374.406 176.772L370.126 177.904C370.126 177.149 369.954 176.532 369.609 176.054C369.284 175.575 368.863 175.216 368.346 174.977C367.848 174.719 367.302 174.59 366.708 174.59C366.23 174.59 365.732 174.691 365.215 174.894C364.717 175.078 364.258 175.4 363.836 175.86C363.415 176.302 363.08 176.891 362.831 177.628C362.582 178.364 362.458 179.285 362.458 180.39C362.458 181.826 362.668 182.985 363.089 183.869C363.511 184.753 364.095 185.406 364.842 185.83C365.588 186.235 366.412 186.438 367.312 186.438C368.307 186.438 369.073 186.235 369.609 185.83C370.165 185.406 370.557 184.882 370.787 184.256C371.017 183.63 371.141 182.995 371.16 182.35L375.182 182.958C375.162 183.952 375.009 184.882 374.722 185.747C374.435 186.612 373.975 187.367 373.343 188.012C372.731 188.638 371.917 189.125 370.902 189.475C369.887 189.825 368.652 190 367.197 190Z" fill="#F22C54"/>
<path d="M334.41 189.613L340.844 171.387H347.622L354.056 189.613H349.001L344.463 174.866H344.003L339.465 189.613H334.41ZM338.23 186.189V183.206H350.926V186.189H338.23Z" fill="#F22C54"/>
<path d="M324.774 189.613V171.387H329.399V189.613H324.774ZM312.424 189.613V171.387H317.048V189.613H312.424ZM315.239 182.212V178.622H326.641V182.212H315.239Z" fill="#F22C54"/>
<path d="M282.711 189.613V171.387H287.364V189.613H282.711ZM286.071 189.613V186.023H297.761V189.613H286.071ZM286.071 182.047V178.815H296.297V182.047H286.071ZM286.071 174.949V171.387H297.675V174.949H286.071Z" fill="#F22C54"/>
<path d="M268.746 190C267.521 190 266.41 189.89 265.415 189.669C264.419 189.448 263.557 189.116 262.829 188.674C262.102 188.214 261.527 187.634 261.106 186.935C260.685 186.235 260.436 185.425 260.359 184.504L264.409 183.206C264.467 183.98 264.696 184.624 265.099 185.14C265.501 185.655 266.037 186.042 266.707 186.299C267.396 186.539 268.162 186.658 269.005 186.658C269.809 186.658 270.479 186.566 271.015 186.382C271.571 186.18 271.982 185.931 272.25 185.637C272.538 185.324 272.681 184.992 272.681 184.642C272.681 184.237 272.499 183.906 272.136 183.648C271.772 183.372 271.274 183.142 270.642 182.958C270.01 182.755 269.273 182.562 268.43 182.378C267.473 182.157 266.535 181.918 265.616 181.66C264.696 181.402 263.864 181.071 263.117 180.666C262.37 180.242 261.776 179.708 261.336 179.064C260.915 178.401 260.704 177.573 260.704 176.578C260.704 175.455 261.001 174.48 261.594 173.651C262.188 172.823 263.059 172.178 264.208 171.718C265.357 171.239 266.774 171 268.459 171C270.125 171 271.542 171.23 272.71 171.69C273.878 172.151 274.778 172.795 275.41 173.624C276.042 174.434 276.386 175.382 276.444 176.468L272.308 177.6C272.308 177.066 272.212 176.597 272.021 176.192C271.848 175.787 271.599 175.455 271.274 175.198C270.948 174.922 270.546 174.719 270.068 174.59C269.589 174.443 269.043 174.369 268.43 174.369C267.703 174.369 267.08 174.452 266.563 174.618C266.066 174.783 265.692 175.004 265.443 175.281C265.194 175.538 265.07 175.842 265.07 176.192C265.07 176.634 265.261 177.002 265.644 177.297C266.046 177.573 266.583 177.812 267.253 178.015C267.942 178.199 268.698 178.383 269.522 178.567C270.345 178.733 271.197 178.944 272.078 179.202C272.959 179.441 273.782 179.764 274.548 180.169C275.314 180.574 275.927 181.126 276.386 181.826C276.865 182.507 277.105 183.372 277.105 184.422C277.105 185.545 276.789 186.53 276.157 187.376C275.544 188.205 274.615 188.849 273.371 189.31C272.126 189.77 270.585 190 268.746 190Z" fill="#F22C54"/>
<path d="M246.158 190C244.952 190 243.879 189.88 242.941 189.641C242.003 189.42 241.189 189.089 240.5 188.647C239.81 188.205 239.236 187.671 238.776 187.045C238.336 186.419 238.001 185.72 237.771 184.946C237.56 184.155 237.455 183.299 237.455 182.378V171.387H242.108V182.24C242.108 183.124 242.252 183.851 242.539 184.422C242.826 184.992 243.267 185.416 243.86 185.692C244.454 185.95 245.21 186.079 246.129 186.079C247.048 186.079 247.805 185.95 248.398 185.692C248.992 185.416 249.432 184.992 249.72 184.422C250.007 183.851 250.15 183.124 250.15 182.24V171.387H254.775V182.378C254.775 184.79 254.057 186.668 252.62 188.012C251.204 189.337 249.049 190 246.158 190Z" fill="#F22C54"/>
<path d="M222.532 190C221.153 190 219.909 189.797 218.798 189.392C217.687 188.987 216.73 188.389 215.926 187.597C215.141 186.806 214.538 185.83 214.116 184.67C213.695 183.492 213.484 182.129 213.484 180.583C213.484 178.41 213.877 176.625 214.662 175.225C215.466 173.808 216.567 172.749 217.965 172.049C219.363 171.35 220.943 171 222.704 171C224.064 171 225.299 171.203 226.409 171.608C227.52 172.013 228.468 172.611 229.253 173.403C230.057 174.194 230.67 175.188 231.091 176.385C231.532 177.563 231.752 178.926 231.752 180.472C231.752 182.074 231.522 183.473 231.062 184.67C230.622 185.848 229.99 186.833 229.167 187.625C228.363 188.417 227.396 189.015 226.266 189.42C225.136 189.807 223.891 190 222.532 190ZM222.676 186.52C223.614 186.52 224.399 186.299 225.031 185.858C225.682 185.397 226.17 184.744 226.496 183.897C226.84 183.031 227.013 181.982 227.013 180.749C227.013 179.441 226.84 178.337 226.496 177.435C226.151 176.514 225.643 175.824 224.973 175.363C224.322 174.885 223.518 174.645 222.561 174.645C221.642 174.645 220.856 174.875 220.205 175.336C219.574 175.778 219.085 176.44 218.741 177.324C218.396 178.189 218.224 179.257 218.224 180.528C218.224 181.485 218.319 182.341 218.511 183.096C218.721 183.832 219.009 184.458 219.372 184.974C219.736 185.471 220.196 185.858 220.751 186.134C221.326 186.391 221.967 186.52 222.676 186.52Z" fill="#F22C54"/>
<path d="M197.254 189.613V171.387H201.878V189.613H197.254ZM198.087 189.613V185.885H209.605V189.613H198.087Z" fill="#F22C54"/>
<path d="M182.191 190C180.985 190 179.913 189.88 178.974 189.641C178.036 189.42 177.222 189.089 176.533 188.647C175.844 188.205 175.269 187.671 174.81 187.045C174.369 186.419 174.034 185.72 173.804 184.946C173.594 184.155 173.488 183.299 173.488 182.378V171.387H178.141V182.24C178.141 183.124 178.285 183.851 178.572 184.422C178.859 184.992 179.3 185.416 179.893 185.692C180.487 185.95 181.243 186.079 182.162 186.079C183.082 186.079 183.838 185.95 184.431 185.692C185.025 185.416 185.465 184.992 185.753 184.422C186.04 183.851 186.184 183.124 186.184 182.24V171.387H190.808V182.378C190.808 184.79 190.09 186.668 188.654 188.012C187.237 189.337 185.083 190 182.191 190Z" fill="#F22C54"/>
<path d="M158.565 190C157.186 190 155.942 189.797 154.831 189.392C153.721 188.987 152.763 188.389 151.959 187.597C151.174 186.806 150.571 185.83 150.149 184.67C149.728 183.492 149.518 182.129 149.518 180.583C149.518 178.41 149.91 176.625 150.695 175.225C151.499 173.808 152.6 172.749 153.998 172.049C155.396 171.35 156.976 171 158.737 171C160.097 171 161.332 171.203 162.443 171.608C163.553 172.013 164.501 172.611 165.286 173.403C166.09 174.194 166.703 175.188 167.124 176.385C167.565 177.563 167.785 178.926 167.785 180.472C167.785 182.074 167.555 183.473 167.096 184.67C166.655 185.848 166.023 186.833 165.2 187.625C164.396 188.417 163.429 189.015 162.299 189.42C161.169 189.807 159.925 190 158.565 190ZM158.709 186.52C159.647 186.52 160.432 186.299 161.064 185.858C161.715 185.397 162.203 184.744 162.529 183.897C162.873 183.031 163.046 181.982 163.046 180.749C163.046 179.441 162.873 178.337 162.529 177.435C162.184 176.514 161.677 175.824 161.007 175.363C160.355 174.885 159.551 174.645 158.594 174.645C157.675 174.645 156.89 174.875 156.239 175.336C155.607 175.778 155.118 176.44 154.774 177.324C154.429 178.189 154.257 179.257 154.257 180.528C154.257 181.485 154.353 182.341 154.544 183.096C154.755 183.832 155.042 184.458 155.406 184.974C155.769 185.471 156.229 185.858 156.784 186.134C157.359 186.391 158 186.52 158.709 186.52Z" fill="#F22C54"/>
<path d="M135.515 189.613V171.387H140.168V189.613H135.515ZM130 175.087V171.387H145.74V175.087H130Z" fill="#F22C54"/>
<path d="M188.683 18.1426L149.979 0V24.1901H0V65.3134H63.7007V160.461L102.405 178.201V65.3134H149.979V153.607H188.683V105.63H255.609V154.011H294.313V24.1901H255.609V64.507H188.683V18.1426Z" fill="#F22C54"/>
<mask id="mask0_1440_463" style="mask-type:alpha" maskUnits="userSpaceOnUse" x="274" y="24" width="147" height="131">
<path d="M420.565 24.1895H340.274V24.1907L340.134 24.1899C340.046 24.1896 339.959 24.1895 339.871 24.1895C304.022 24.1895 274.961 53.2507 274.961 89.0997C274.961 124.949 304.022 154.01 339.871 154.01C340.006 154.01 340.14 154.009 340.274 154.009V154.01H420.565C420.525 153.983 420.485 153.956 420.444 153.93L389.461 112.887H340.274V112.883C340.14 112.886 340.006 112.887 339.871 112.887C326.734 112.887 316.084 102.237 316.084 89.0997C316.084 75.9625 326.734 65.3127 339.871 65.3127C340.006 65.3127 340.14 65.3138 340.274 65.316V65.3127H389.461L420.444 24.2698L420.565 24.1895Z" fill="#7A7A7A"/>
</mask>
<g mask="url(#mask0_1440_463)">
<path d="M418.892 21.771L316.891 157.236" stroke="#F22C54" stroke-width="4.83803"/>
<path d="M475.336 21.771L373.334 157.236" stroke="#F22C54" stroke-width="4.83803"/>
<path d="M430.18 21.771L328.178 157.236" stroke="#F22C54" stroke-width="4.83803"/>
<path d="M486.625 21.771L384.623 157.236" stroke="#F22C54" stroke-width="4.83803"/>
<path d="M441.469 21.771L339.467 157.236" stroke="#F22C54" stroke-width="4.83803"/>
<path d="M497.914 21.771L395.912 157.236" stroke="#F22C54" stroke-width="4.83803"/>
<path d="M509.203 21.771L407.201 157.236" stroke="#F22C54" stroke-width="4.83803"/>
<path d="M520.492 21.771L418.49 157.236" stroke="#F22C54" stroke-width="4.83803"/>
<path d="M407.603 21.771L305.602 157.236" stroke="#F22C54" stroke-width="4.83803"/>
<path d="M464.047 21.771L362.045 157.236" stroke="#F22C54" stroke-width="4.83803"/>
<path d="M396.314 21.771L294.312 157.236" stroke="#F22C54" stroke-width="4.83803"/>
<path d="M452.758 21.771L350.756 157.236" stroke="#F22C54" stroke-width="4.83803"/>
<path d="M385.027 21.771L283.025 157.236" stroke="#F22C54" stroke-width="4.83803"/>
<path d="M373.738 21.771L271.736 157.236" stroke="#F22C54" stroke-width="4.83803"/>
<path d="M362.449 21.771L260.447 157.236" stroke="#F22C54" stroke-width="4.83803"/>
<path d="M351.16 21.771L249.158 157.236" stroke="#F22C54" stroke-width="4.83803"/>
<path d="M339.871 21.771L237.869 157.236" stroke="#F22C54" stroke-width="4.83803"/>
<path d="M328.584 21.771L226.582 157.236" stroke="#F22C54" stroke-width="4.83803"/>
<path d="M317.295 21.771L215.293 157.236" stroke="#F22C54" stroke-width="4.83803"/>
<path d="M306.006 21.771L204.004 157.236" stroke="#F22C54" stroke-width="4.83803"/>
</g>
<mask id="mask1_1440_463" style="mask-type:alpha" maskUnits="userSpaceOnUse" x="401" y="24" width="285" height="131">
<path fill-rule="evenodd" clip-rule="evenodd" d="M541.859 24.1895V42.8633C530.141 31.3156 514.053 24.1895 496.301 24.1895L496.168 24.1896C496.078 24.1897 495.988 24.1901 495.898 24.1907V24.1895H466.87V24.1907C466.736 24.1898 466.601 24.1895 466.467 24.1895C430.618 24.1895 401.557 53.2507 401.557 89.0997C401.557 124.949 430.618 154.01 466.467 154.01L466.652 154.01C466.725 154.009 466.797 154.009 466.87 154.009V154.01H495.898V154.009C496.032 154.009 496.167 154.01 496.301 154.01C514.053 154.01 530.141 146.884 541.859 135.336V154.01H580.564V84.9539L646.371 154.969L647.392 154.01H685.388V24.1895H646.683V95.2568L580.564 24.9083V24.1895H541.859ZM495.898 65.316C495.97 65.3149 496.041 65.314 496.113 65.3134C496.176 65.3129 496.238 65.3127 496.301 65.3127C509.439 65.3127 520.088 75.9625 520.088 89.0997C520.088 102.237 509.439 112.887 496.301 112.887L496.195 112.886L496.089 112.886L496.063 112.886C496.008 112.885 495.953 112.884 495.898 112.883V112.887H466.87V112.883L466.81 112.884L466.739 112.885L466.682 112.886L466.62 112.886L466.538 112.887L466.467 112.887C453.33 112.887 442.68 102.237 442.68 89.0997C442.68 75.9625 453.33 65.3127 466.467 65.3127L466.551 65.3128L466.677 65.3136C466.715 65.3139 466.753 65.3143 466.791 65.3149L466.87 65.316V65.3127H495.898V65.316Z" fill="#999999"/>
</mask>
<g mask="url(#mask1_1440_463)">
<path d="M439.053 21.771L337.051 157.236" stroke="#F22C54" stroke-width="4.83803"/>
<path d="M450.342 21.771L348.34 157.236" stroke="#F22C54" stroke-width="4.83803"/>
<path d="M461.629 21.771L359.627 157.236" stroke="#F22C54" stroke-width="4.83803"/>
<path d="M472.918 21.771L370.916 157.236" stroke="#F22C54" stroke-width="4.83803"/>
<path d="M484.207 21.771L382.205 157.236" stroke="#F22C54" stroke-width="4.83803"/>
<path d="M495.494 21.771L393.492 157.236" stroke="#F22C54" stroke-width="4.83803"/>
<path d="M506.783 21.771L404.781 157.236" stroke="#F22C54" stroke-width="4.83803"/>
<path d="M518.072 21.771L416.07 157.236" stroke="#F22C54" stroke-width="4.83803"/>
<path d="M529.361 21.771L427.359 157.236" stroke="#F22C54" stroke-width="4.83803"/>
<path d="M540.65 21.771L438.648 157.236" stroke="#F22C54" stroke-width="4.83803"/>
<path d="M551.939 21.771L449.938 157.236" stroke="#F22C54" stroke-width="4.83803"/>
<path d="M563.226 21.771L461.225 157.236" stroke="#F22C54" stroke-width="4.83803"/>
<path d="M574.515 21.771L472.514 157.236" stroke="#F22C54" stroke-width="4.83803"/>
<path d="M585.805 21.771L483.803 157.236" stroke="#F22C54" stroke-width="4.83803"/>
<path d="M597.094 21.771L495.092 157.236" stroke="#F22C54" stroke-width="4.83803"/>
<path d="M608.383 21.771L506.381 157.236" stroke="#F22C54" stroke-width="4.83803"/>
<path d="M619.672 21.771L517.67 157.236" stroke="#F22C54" stroke-width="4.83803"/>
<path d="M630.959 21.771L528.957 157.236" stroke="#F22C54" stroke-width="4.83803"/>
<path d="M642.248 21.771L540.246 157.236" stroke="#F22C54" stroke-width="4.83803"/>
<path d="M653.537 21.771L551.535 157.236" stroke="#F22C54" stroke-width="4.83803"/>
<path d="M664.828 21.771L562.826 157.236" stroke="#F22C54" stroke-width="4.83803"/>
<path d="M676.115 21.771L574.113 157.236" stroke="#F22C54" stroke-width="4.83803"/>
<path d="M687.404 21.771L585.402 157.236" stroke="#F22C54" stroke-width="4.83803"/>
<path d="M698.693 21.771L596.691 157.236" stroke="#F22C54" stroke-width="4.83803"/>
<path d="M709.982 21.771L607.98 157.236" stroke="#F22C54" stroke-width="4.83803"/>
<path d="M721.271 21.771L619.27 157.236" stroke="#F22C54" stroke-width="4.83803"/>
<path d="M732.558 21.771L630.557 157.236" stroke="#F22C54" stroke-width="4.83803"/>
<path d="M743.847 21.771L641.846 157.236" stroke="#F22C54" stroke-width="4.83803"/>
<path d="M755.137 21.771L653.135 157.236" stroke="#F22C54" stroke-width="4.83803"/>
<path d="M766.424 21.771L664.422 157.236" stroke="#F22C54" stroke-width="4.83803"/>
<path d="M777.713 21.771L675.711 157.236" stroke="#F22C54" stroke-width="4.83803"/>
</g>
<path d="M808.844 154H703.156V133.927C703.156 125.898 704.375 119.397 706.813 114.426C709.251 109.456 712.588 105.378 716.824 102.191C721.187 99.0046 726.129 96.0732 731.648 93.3971L765.914 76.7651C767.84 75.8722 769.379 75.0441 770.535 74.2795C771.69 73.3879 772.525 72.368 773.038 71.2211C773.552 69.9459 773.808 68.3532 773.808 66.4417C773.808 64.0196 773.294 62.1081 772.267 60.7059C771.241 59.3037 769.444 58.2838 766.877 57.6475C764.31 57.0099 760.716 56.6911 756.097 56.6911C750.963 56.6911 747.113 57.137 744.546 58.0299C741.979 58.9214 740.246 60.3871 739.348 62.4269C738.578 64.3384 738.192 66.951 738.192 70.2647V73.7054H702V70.647C702 62.1081 703.861 54.3339 707.584 47.3229C711.434 40.1862 717.53 34.5152 725.872 30.3086C734.214 26.1033 745.251 24 758.984 24C770.92 24 780.609 25.848 788.053 29.544C795.626 33.24 801.145 38.2747 804.61 44.6468C808.204 50.8919 810 57.9016 810 65.6758C810 73.8337 808.267 80.6516 804.802 86.1321C801.337 91.4856 796.909 95.8827 791.518 99.3234C786.128 102.637 780.609 105.25 774.963 107.162L750.899 115.192C747.176 116.466 744.803 117.74 743.776 119.015C742.749 120.289 742.236 121.819 742.236 123.603L760.716 121.691H808.844V154Z" fill="#FAFAFA"/>
<path d="M1001.84 154H896.156V133.927C896.156 125.898 897.375 119.397 899.813 114.426C902.251 109.456 905.588 105.378 909.824 102.191C914.187 99.0046 919.129 96.0732 924.648 93.3971L958.914 76.7651C960.84 75.8722 962.379 75.0441 963.535 74.2795C964.69 73.3879 965.525 72.368 966.038 71.2211C966.552 69.9459 966.808 68.3532 966.808 66.4417C966.808 64.0196 966.294 62.1081 965.267 60.7059C964.241 59.3037 962.444 58.2838 959.877 57.6475C957.31 57.0099 953.716 56.6911 949.097 56.6911C943.963 56.6911 940.113 57.137 937.546 58.0299C934.979 58.9214 933.246 60.3871 932.348 62.4269C931.578 64.3384 931.192 66.951 931.192 70.2647V73.7054H895V70.647C895 62.1081 896.861 54.3339 900.584 47.3229C904.434 40.1862 910.53 34.5152 918.872 30.3086C927.214 26.1033 938.251 24 951.984 24C963.92 24 973.609 25.848 981.053 29.544C988.626 33.24 994.145 38.2747 997.61 44.6468C1001.2 50.8919 1003 57.9016 1003 65.6758C1003 73.8337 1001.27 80.6516 997.802 86.1321C994.337 91.4856 989.909 95.8827 984.518 99.3234C979.128 102.637 973.609 105.25 967.963 107.162L943.899 115.192C940.176 116.466 937.803 117.74 936.776 119.015C935.749 120.289 935.236 121.819 935.236 123.603L953.716 121.691H1001.84V154Z" fill="#FAFAFA"/>
<path d="M852 154C838.881 154 827.821 151.299 818.817 145.898C809.943 140.372 803.254 132.773 798.752 123.101C794.251 113.304 792 101.937 792 88.9997C792 76.0627 794.251 64.7584 798.752 55.0868C803.254 45.2898 809.943 37.6908 818.817 32.2898C827.821 26.7632 838.881 24 852 24C865.119 24 876.116 26.7632 884.99 32.2898C893.993 37.6908 900.746 45.2898 905.248 55.0868C909.749 64.7584 912 76.0627 912 88.9997C912 101.937 909.749 113.304 905.248 123.101C900.746 132.773 893.993 140.372 884.99 145.898C876.116 151.299 865.119 154 852 154ZM852 119.521C857.531 119.521 861.774 118.831 864.733 117.449C867.82 115.942 869.942 112.99 871.099 108.594C872.385 104.198 873.029 97.6664 873.029 88.9997C873.029 80.2075 872.385 73.6761 871.099 69.4056C869.942 65.0096 867.82 62.1207 864.733 60.7391C861.774 59.2318 857.531 58.4782 852 58.4782C846.469 58.4782 842.16 59.2318 839.075 60.7391C835.988 62.1207 833.866 65.0096 832.708 69.4056C831.55 73.6761 830.971 80.2075 830.971 88.9997C830.971 97.6664 831.55 104.198 832.708 108.594C833.866 112.99 835.988 115.942 839.075 117.449C842.16 118.831 846.469 119.521 852 119.521Z" fill="#FAFAFA"/>
<path d="M1065.71 156.113C1081.91 156.113 1099.83 133.965 1100 115.061C1100.18 94.6161 1083.04 74.0071 1065.71 74.0071H1037.8C1033.61 74.0071 1029.17 75.2385 1025.03 77.6765V72.658C1025.03 72.6318 1025.03 72.4407 1025.03 72.4145V69.1808V68.7683C1025.03 59.2257 1031.56 56.0175 1039.3 56.0175L1054.67 56.0175C1060.64 56.0175 1067.2 56.716 1067.2 64.7339L1098.52 64.7339C1098.52 40.6977 1077.87 24 1062.48 24H1030.59C1013.54 24 994.01 47.8449 993.039 69.1809H993.026V69.4844C993.009 69.9333 993 70.3829 993 70.8311V72.401C993.001 72.428 993.003 72.4545 993.005 72.4813H993.026V115.749H993.023C993.023 115.763 993.026 115.779 993.026 115.793V116.065H993.041C993.236 133.596 1009.79 156.113 1027.21 156.113H1045.85L1065.71 156.113ZM1054.67 129.711L1040.21 129.711C1032.77 129.711 1026.79 124.545 1026.79 115.772V114.35C1026.79 105.578 1032.77 98.5146 1040.21 98.5146H1054.67C1062.1 98.5146 1068.09 105.578 1068.09 114.35V115.772C1068.09 124.545 1062.1 129.711 1054.67 129.711Z" fill="#FAFAFA"/>
</svg>
