<?xml version="1.0" encoding="utf-8"?>
<!-- Generator: Adobe Illustrator 15.0.0, SVG Export Plug-In . SVG Version: 6.00 Build 0)  -->
<!DOCTYPE svg PUBLIC "-//W3C//DTD SVG 1.1//EN" "http://www.w3.org/Graphics/SVG/1.1/DTD/svg11.dtd">
<svg version="1.1" id="Calque_1" xmlns="http://www.w3.org/2000/svg" xmlns:xlink="http://www.w3.org/1999/xlink" x="0px" y="0px"
	 width="2448.43px" height="484.646px" viewBox="0 0 2448.43 484.646" enable-background="new 0 0 2448.43 484.646"
	 xml:space="preserve">
<g>
	<defs>
		<rect id="SVGID_1_" width="2448.434" height="484.646"/>
	</defs>
	<clipPath id="SVGID_2_">
		<use xlink:href="#SVGID_1_"  overflow="visible"/>
	</clipPath>
	<path clip-path="url(#SVGID_2_)" fill="#434342" d="M993.799,474.312c-0.001-0.017-0.354-0.296-0.759-0.538
		c-0.336-0.203-0.817-0.459-1.439-0.695c-3.448-1.321-8.103-3.484-13.024-7.046c-0.861-0.623-4.386-3.191-7.95-6.968
		c-8.21-8.698-12.565-18.611-13.608-22.287c-2.741-9.662-8.131-23.331-19.718-35.201c-2.512-2.573-4.56-4.27-6.577-5.582
		c-6.887-4.483-12.924-6.45-14.616-6.964c-6.218-1.888-16.138-7.05-32.519-21.186c-6.793-4.828-12.354-9.351-16.67-13.099
		c-0.001,0-8.149-7.074-16.275-15.612c-0.129-0.135-0.469-0.495-0.977-1.026c-1.388-1.453-4.013-4.188-7.358-7.573
		c-0.962-0.975-2.89-2.921-5.556-5.558c-8.254-8.161-9.969-9.366-13.925-13.523c-3.605-3.787-6.926-7.518-9.981-11.145
		c-17.293-19.135-25.968-36.926-41.601-55.181c-15.666-18.334-27.506-38.082-42.83-55.531
		c-16.202-18.332-15.396-44.676-38.268-59.383c-16.426-10.583-20.625-7.726-31.096-20.723c-6.605-8.44-7.804-17.858-14.24-26.514
		c-11.141-14.657-30.368-20.609-45.385-33.404c-9.084-8.01-13.552-23.08-26.879-23.58l-1.391-0.006
		c-5.075,0.085-11.565,2.386-19.993,7.666c-14.577,9.462-29.033,38.406-42.042,51.518c-14.976,15.215-28.346,32.427-43.818,47.751
		c-35.509,35.388-54.567,69.623-96.904,101.875c-22.127,16.841-41.623,29.39-57.985,49.576
		c-11.808,14.455-28.715,40.837-51.519,49.376c-1.316-17.38-7.598-25.157-18.741-39.268c-9.946-12.325-32.842-21.611-37.68-32.039
		c-13.036,19.427-34.822,31.404-53.627,48.922c-19.838,18.292-25.721,39.311-51.176,55.582
		c-26.667,17.267-39.514,29.945-56.056,50.802c-14.098,17.538-22.44,43.961-32.837,56.983
		C580.266,474.949,993.858,474.907,993.799,474.312 M166.967,419.265c-2.592-8.756-2.017-18.389-10.584-24.063
		c-16.848,10.442-39.713,33.487-42.757,48.53c-24.516,3.878-39.325,24.959-61.879,20.216c-0.237-0.038-0.474-0.076-0.712-0.114
		c0.175,0,0.376,0.001,0.712,0.114c9.404-30.078,40.996-49.977,63.497-74.567c18.489-19.959,39.687-67.026,75.989-77.61
		c3.938,16.841-4.876,34.295-15.956,48.642c3.679-2.643,11.915-5.711,15.612-8.907C206.022,374.82,184.379,398.084,166.967,419.265
		 M594.826,395.049c-23.586-12.273-31.038-28.355-52.866,1.439c-1.601-41.516-77.713,32.109-97.54,37.67
		c-6.341-31.466,26.544-66.083,23.712-99.201c-15.782,9.234-29.342,26.34-44.451,37.118c-2.199-20.591-2.304-35.759-11.678-54.618
		c-15.302,17.199-20.135,41.208-48.006,52.159c-4.507-15.296,6.225-30.524,5.945-45.587c-22.466,13.745-23.479,49.605-55.19,54.121
		c-0.532-2.655-0.68-5.425-1.011-8.194c-5.617-0.791-10.853-0.045-16.303-0.068c-15.142,24.404-46.572,87.265-99.275,85.713
		l0.019-4.431c30.405-30.322,45.273-67.559,80.064-99.404c33.218-30.194,60.868-62.18,95.988-90.925
		c35.499-28.957,55.427-60.763,83.737-92.307c26.213-29.116,52.426-54.243,74.765-83.931c4.598-6.286,9.533-12.792,16.887-17.415
		c2.007,22.926-0.209,49.92-14.481,70.675c-15.678,22.852-39.927,40.68-47.903,65.559c12.837-12.122,28.745-43.834,48.029-49.841
		c11.304,14.114-11.234,47.222-19.702,61.802c-10.93,18.773-28.696,37.963-39.117,57.179c24.379-9.193,31.824-31.195,55.169-41.389
		c-1.101,8.847-7.952,17.458-9.411,26.081c13.697-7.905,24.267-20.708,40.754-28.167c6.654,40.213-54.954,75.709-62.126,114.535
		c21.948-12.529,43.757-37.566,61.872-54.314c1.699,13.95-9.566,26.637-5.783,41.156c5.976-1.415,17.164,0.185,23.477-1.563
		c0.118,11.741-5.565,29.093,17.369,31.18C598.62,371.376,600.823,384.895,594.826,395.049"/>
	<path clip-path="url(#SVGID_2_)" fill="#434242" d="M736.448,108.75c0,0-31.531-58.625-64.873-59.637
		c-33.343-1.013-46.517,18.942-46.517,18.942c-0.84,14.766,29.617,97.71,64.875,130.912c39.672,37.362,48.907-88.472,48.907-88.472
		L736.448,108.75z"/>
	<path clip-path="url(#SVGID_2_)" fill="#B74646" d="M773.654,100.222c45.398,15.455,78.258,63.56,88.006,98.596
		c14.274,51.296-43.009,108.246-43.009,108.246s-35.207-6.827-97.321-69.294c-47.927-48.199-70.058-95.677-70.058-95.677
		S706.881,77.485,773.654,100.222"/>
	<path clip-path="url(#SVGID_2_)" fill="#434242" d="M698.166,68.419c0,0,17.215-3.078,26.843-20.938
		c9.636-17.858-1.177-30.669-1.177-30.669l-13.36,3.199c0,0,10.309,15.741,2.339,28.473c-7.973,12.735-16.812,17.507-16.812,17.507
		L698.166,68.419z"/>
	<path clip-path="url(#SVGID_2_)" fill="#434242" d="M695.261,65.732c0,0,12.438-12.29,10.253-32.463
		c-2.193-20.177-18.355-24.603-18.355-24.603l-9.199,10.209c0,0,17.421,7.125,18.067,22.138c0.652,15.007-3.925,23.948-3.925,23.948
		L695.261,65.732z"/>
	<path clip-path="url(#SVGID_2_)" fill="#434242" d="M764.813,97.747c-1.621,8.474,0.873,18.033,7.52,25.479
		c10.699,11.986,28.064,13.938,38.785,4.369c1.072-0.957,2.008-2.005,2.861-3.104c-11.845-10.529-25.387-19.185-40.325-24.269
		C770.683,99.207,767.74,98.425,764.813,97.747"/>
	<path clip-path="url(#SVGID_2_)" fill="#434242" d="M854.806,253.354c-15.594-13.315-37.72-14.304-51.638-1.48
		c-12.466,11.487-14.431,30.445-6.091,46.233c14.515,7.629,22.155,8.991,22.155,8.991S842.102,283.606,854.806,253.354"/>
	<path clip-path="url(#SVGID_2_)" fill="none" stroke="#434342" stroke-miterlimit="10" d="M854.806,253.354
		c-15.594-13.315-37.72-14.304-51.638-1.48c-12.466,11.487-14.431,30.445-6.091,46.233c14.515,7.629,22.155,8.991,22.155,8.991
		S842.102,283.606,854.806,253.354z"/>
	<path clip-path="url(#SVGID_2_)" fill="#434242" d="M679.97,127.703c-13.423,11.981-13.759,33.499-0.749,48.074
		c13.005,14.57,34.427,16.676,47.85,4.695c13.423-11.982,13.757-33.507,0.752-48.077C714.813,117.82,693.394,115.722,679.97,127.703
		"/>
	<path clip-path="url(#SVGID_2_)" fill="#434242" d="M763.607,265.75c7.954-7.1,7.194-20.938-1.706-30.911
		c-8.896-9.965-22.565-12.292-30.52-5.192c-3.564,3.182-5.37,7.718-5.486,12.648c10.918,10.729,20.949,19.691,30.064,27.193
		C758.789,268.921,761.418,267.704,763.607,265.75"/>
	<path clip-path="url(#SVGID_2_)" fill="none" stroke="#434342" stroke-miterlimit="10" d="M763.607,265.75
		c7.954-7.1,7.194-20.938-1.706-30.911c-8.896-9.965-22.565-12.292-30.52-5.192c-3.564,3.182-5.37,7.718-5.486,12.648
		c10.918,10.729,20.949,19.691,30.064,27.193C758.789,268.921,761.418,267.704,763.607,265.75z"/>
	<path clip-path="url(#SVGID_2_)" fill="#434242" d="M818.455,212.305c-12.486,11.145-32.755,8.811-45.276-5.217
		c-12.516-14.022-12.546-34.43-0.06-45.575c12.482-11.142,32.754-8.8,45.27,5.222C830.909,180.762,830.937,201.163,818.455,212.305"
		/>
	<path clip-path="url(#SVGID_2_)" fill="#FFFFFF" d="M684.251,87.317c-7.763,6.929-19.675,6.258-26.609-1.51
		c-6.93-7.763-6.253-19.68,1.509-26.609c7.767-6.932,19.683-6.256,26.613,1.507C692.698,68.474,692.017,80.385,684.251,87.317"/>
	<path clip-path="url(#SVGID_2_)" fill="#434242" d="M676.387,78.506c-2.896,2.584-7.339,2.333-9.929-0.569
		c-2.585-2.895-2.333-7.339,0.563-9.924c2.899-2.587,7.343-2.335,9.927,0.561C679.537,71.476,679.285,75.919,676.387,78.506"/>
	<path clip-path="url(#SVGID_2_)" fill="#FFFFFF" d="M679.029,77.73c-1.563,1.396-3.963,1.259-5.358-0.304
		c-1.396-1.564-1.26-3.963,0.303-5.359c1.564-1.395,3.966-1.261,5.362,0.302C680.731,73.934,680.592,76.334,679.029,77.73"/>
</g>
<g>
	<path fill="#434342" d="M1149.668,252.177c8.664,1.444,14.739,2.95,18.231,4.513c3.486,1.568,7.998,4.755,13.537,9.566
		c14.44,12.274,21.66,28.88,21.66,49.818c0,22.382-7.462,40.793-22.382,55.232c-14.925,14.44-34.177,21.66-57.76,21.66h-75.81
		c-7.22,0-13.238-2.284-18.05-6.859c-4.817-4.568-7.22-10.469-7.22-17.688V156.874c0-7.22,2.347-13.053,7.04-17.509
		c4.693-4.45,10.649-6.679,17.87-6.679h59.204c22.861,0,41.272,6.261,55.233,18.772c13.955,12.516,20.938,28.88,20.938,49.096
		c0,7.942-1.388,15.467-4.151,22.563c-2.77,7.102-6.081,12.635-9.928,16.606C1164.227,243.694,1158.09,247.845,1149.668,252.177z
		 M1070.248,175.284v62.453h29.241c9.865,0,18.168-3.006,24.909-9.025c6.735-6.013,10.108-13.357,10.108-22.021
		c0-8.421-3.249-15.76-9.747-22.021c-6.498-6.255-14.322-9.386-23.465-9.386H1070.248z M1070.248,278.531v71.839h46.208
		c10.587,0,19.494-3.368,26.714-10.108c7.22-6.734,10.83-15.038,10.83-24.909c0-10.107-3.61-18.771-10.83-25.992
		c-7.22-7.22-15.884-10.829-25.992-10.829H1070.248z"/>
	<path fill="#434342" d="M1394.06,318.601c0,13.481-1.506,24.368-4.512,32.671c-3.013,8.303-8.123,16.064-15.343,23.284
		c-15.647,14.44-36.822,21.66-63.536,21.66c-25.755,0-46.812-7.22-63.175-21.66c-13.481-12.031-20.216-30.685-20.216-55.955v-99.275
		c0-6.498,2.268-12.031,6.803-16.606c4.534-4.569,10.147-6.859,16.837-6.859c6.205,0,11.462,2.29,15.76,6.859
		c4.298,4.575,6.447,10.108,6.447,16.606v95.666c0,26.956,12.454,40.432,37.363,40.432c25.146,0,37.725-13.476,37.725-40.432
		v-95.666c0-6.498,2.166-12.031,6.498-16.606c4.332-4.569,9.747-6.859,16.245-6.859c6.256,0,11.671,2.29,16.245,6.859
		c4.568,4.575,6.858,10.108,6.858,16.606V318.601z"/>
	<path fill="#434342" d="M1560.116,220.409v-4.461c0-5.455,2.041-10.165,6.137-14.136c4.089-3.965,9.024-5.951,14.801-5.951
		c6.498,0,11.913,1.811,16.245,5.432c4.332,3.621,6.498,8.325,6.498,14.113v159.613c0,30.16-7.344,53.444-22.021,69.859
		c-7.941,9.166-18.473,16.284-31.587,21.354c-13.12,5.061-27.256,7.599-42.418,7.599c-20.701,0-39.292-4.033-55.774-12.094
		c-16.487-8.066-24.729-17.029-24.729-26.895c0-5.539,2.025-10.351,6.081-14.44c4.056-4.095,8.945-6.137,14.677-6.137
		c3.339,0,6.921,0.959,10.739,2.888l10.379,5.776c13.583,6.978,27.171,10.469,40.76,10.469c8.489,0,16.374-1.687,23.656-5.054
		c7.276-3.373,13.104-8.185,17.469-14.439c3.153-4.817,5.218-9.567,6.188-14.26c0.97-4.693,1.455-12.212,1.455-22.563v-5.055
		c-8.929,10.351-16.77,17.21-23.527,20.577c-6.757,3.368-15.929,5.055-27.509,5.055c-24.616,0-45.007-9.387-61.173-28.158
		c-16.166-18.772-24.249-42.599-24.249-71.479c0-29.359,8.241-53.727,24.729-73.102c16.481-19.37,37.121-29.061,61.911-29.061
		c10.83,0,19.612,1.568,26.354,4.693C1541.941,203.685,1550.245,210.301,1560.116,220.409z M1514.269,238.459
		c-13.48,0-24.367,5.358-32.67,16.064c-8.304,10.711-12.455,24.729-12.455,42.057c0,17.57,4.208,31.768,12.635,42.598
		c8.422,10.83,19.37,16.245,32.852,16.245c14.197,0,25.389-5.776,33.573-17.328c4.089-5.291,6.858-10.768,8.303-16.426
		c1.444-5.651,2.166-13.537,2.166-23.646c0-9.865-0.722-17.987-2.166-24.367c-1.444-6.374-3.971-11.97-7.581-16.786
		C1540.982,244.596,1529.431,238.459,1514.269,238.459z"/>
	<path fill="#434342" d="M1731.228,242.616c-4.75-2.346-9.493-4.168-14.237-5.465c-4.749-1.292-9.257-1.94-13.521-1.94
		c-6.645,0-12.043,1.563-16.194,4.682c-4.151,3.125-6.228,7.203-6.228,12.246c0,2.888,0.479,5.11,1.438,6.667
		c0.959,1.563,3.113,3.424,6.47,5.584s6.295,3.842,8.811,5.043s7.977,3.48,16.369,6.842c8.151,2.883,15.585,5.883,22.298,9.003
		c5.517,2.402,10.79,5.285,15.827,8.646c8.146,5.522,14.321,11.823,18.519,18.907c4.196,7.085,6.295,15.072,6.295,23.956
		c0,17.531-6.983,31.938-20.938,43.225c-13.96,11.286-31.892,16.927-53.789,16.927c-17.57,0-34.295-4.027-50.179-12.093
		c-15.884-8.061-23.826-17.267-23.826-27.617c0-5.775,1.918-10.706,5.754-14.801c3.835-4.09,8.393-6.137,13.673-6.137
		c3.836,0,9.707,2.29,17.627,6.858c4.558,2.651,8.573,4.998,12.048,7.04c3.475,2.048,7.796,3.79,12.951,5.234
		s9.775,2.166,13.854,2.166c7.671,0,14.09-1.979,19.246-5.939c5.155-3.96,7.733-8.828,7.733-14.593
		c0-8.162-8.275-15.365-24.813-21.609l-15.828-6.125c-17.502-6.724-30.093-12.726-37.764-18.011
		c-11.749-8.404-17.621-20.526-17.621-36.377c0-17.288,6.616-31.457,19.854-42.501c13.233-11.044,30.2-16.572,50.901-16.572
		c17.565,0,32.97,3.587,46.208,10.762c13.233,7.175,19.855,15.421,19.855,24.74c0,5.263-1.766,9.747-5.286,13.453
		c-3.52,3.706-7.953,5.557-13.289,5.557c-3.886,0-8.016-1.055-12.387-3.176L1731.228,242.616z"/>
	<path fill="#434342" d="M1918.222,346.038c4.812-1.444,8.304-2.166,10.47-2.166c5.054,0,9.504,2.047,13.356,6.137
		c3.847,4.095,5.776,8.906,5.776,14.44c0,9.148-5.838,16.848-17.509,23.104c-11.676,6.256-25.936,9.386-42.778,9.386
		c-27.437,0-49.88-9.323-67.326-27.978c-17.452-18.647-26.173-42.654-26.173-72.02c0-29.602,8.845-53.845,26.533-72.741
		c17.689-18.891,40.37-28.338,68.049-28.338c16.605,0,30.623,2.888,42.057,8.664c11.428,5.776,17.147,12.759,17.147,20.938
		c0,6.74-1.867,12.217-5.596,16.425c-3.734,4.213-8.483,6.318-14.26,6.318c-2.408,0-4.033-0.119-4.873-0.361
		c-0.847-0.237-3.554-1.32-8.123-3.249c-10.351-4.089-18.896-6.137-25.631-6.137c-14.203,0-25.692,5.234-34.476,15.703
		c-8.788,10.469-13.176,24.368-13.176,41.695c0,16.849,4.45,30.686,13.356,41.516c8.901,10.83,20.335,16.245,34.295,16.245
		c4.09,0,7.339-0.3,9.747-0.903c2.403-0.598,6.013-1.742,10.83-3.429L1918.222,346.038z"/>
	<path fill="#434342" d="M2101.247,219.326v-2.978c0-5.708,2.166-10.554,6.498-14.525c4.331-3.971,9.504-5.962,15.522-5.962
		c6.498,0,11.913,1.929,16.245,5.776c4.332,3.853,6.498,8.545,6.498,14.079v158.479c0,6.262-2.262,11.496-6.786,15.704
		c-4.523,4.208-10.091,6.317-16.69,6.317c-6.356,0-11.676-2.076-15.951-6.228c-4.281-4.151-6.419-9.313-6.419-15.483v-3.56
		c-8.862,10.204-16.702,16.968-23.521,20.29c-6.825,3.316-15.98,4.98-27.47,4.98c-24.425,0-44.832-9.55-61.229-28.648
		c-16.403-19.1-24.599-42.818-24.599-71.168c0-28.587,8.303-52.486,24.909-71.709c16.605-19.217,37.183-28.829,61.73-28.829
		c11.31,0,20.216,1.466,26.714,4.399S2091.376,209.551,2101.247,219.326z M2055.761,237.737c-13.481,0-24.43,5.398-32.852,16.194
		c-8.427,10.797-12.635,25.073-12.635,42.83c0,17.52,4.09,31.672,12.274,42.468c8.179,10.796,19.009,16.194,32.49,16.194
		c14.197,0,25.27-5.155,33.212-15.473c7.941-10.316,11.913-24.835,11.913-43.551c0-17.994-3.972-32.265-11.913-42.824
		C2080.309,243.017,2069.479,237.737,2055.761,237.737z"/>
	<path fill="#434342" d="M2227.955,372.418c0,6.735-2.149,12.381-6.447,16.95c-4.299,4.563-9.674,6.848-16.115,6.848
		c-6.453,0-11.947-2.284-16.482-6.848c-4.535-4.569-6.803-10.097-6.803-16.589V134.102c0-6.25,2.206-11.715,6.628-16.403
		c4.417-4.688,9.967-7.034,16.657-7.034c6.204,0,11.518,2.346,15.935,7.034c4.416,4.688,6.628,10.153,6.628,16.403V372.418z"/>
	<path fill="#434342" d="M2305.93,311.381c1.443,5.297,2.944,9.871,4.512,13.718c1.563,3.853,3.306,7.463,5.234,10.83
		c3.61,6.261,9.144,11.191,16.606,14.801c7.457,3.61,15.523,5.415,24.188,5.415c13.232,0,26.11-4.038,38.627-12.116
		c5.29-3.666,9.442-6.176,12.454-7.524c3.007-1.342,5.832-2.02,8.483-2.02c6.013,0,10.83,1.816,14.44,5.449
		c3.609,3.633,5.415,8.229,5.415,13.797c0,5.81-2.651,11.377-7.942,16.702c-18.772,17.672-43.444,26.505-74.005,26.505
		c-28.644,0-52.108-9.262-70.396-27.797c-18.292-18.529-27.436-42.474-27.436-71.839c0-28.638,8.9-52.706,26.714-72.2
		c17.808-19.494,39.828-29.241,66.063-29.241c27.673,0,49.936,10.441,66.784,31.311c6.735,8.156,12.393,18.293,16.968,30.408
		c4.568,12.116,6.858,23.212,6.858,33.286c0,7.439-1.687,12.719-5.054,15.839c-3.373,3.119-9.268,4.676-17.689,4.676H2305.93z
		 M2349.249,233.405c-24.311,0-38.987,15.765-44.042,47.291h87.362C2387.272,249.17,2372.833,233.405,2349.249,233.405z"/>
</g>
</svg>
